<?xml version="1.0"?>
<svg width="1024" height="1024" xmlns="http://www.w3.org/2000/svg" xmlns:svg="http://www.w3.org/2000/svg" preserveAspectRatio="xMidYMid meet" version="1.0">

 <g class="layer">
  <title>Layer 1</title>
  <ellipse cx="510.73" cy="641.88" fill="#ffffaa" id="svg_8" rx="267.25" ry="247.85" stroke="null" stroke-dasharray="null" stroke-linecap="null" stroke-linejoin="null" stroke-opacity="null" transform="matrix(1, 0, 0, 1, 0, 0) matrix(-0.00934609, -0.999956, 0.999956, -0.00934609, -126.348, 1158.58)"/>
  <ellipse cx="726.93" cy="1008.91" fill="#ff7f00" id="svg_11" rx="37.86" ry="65" stroke="null" stroke-dasharray="null" stroke-linecap="null" stroke-linejoin="null" stroke-opacity="null" transform="matrix(1, 0, 0, 1, 0, 0) matrix(0.714972, -0.322662, 0.208299, 1.10752, -112.458, -8.26135)"/>
  <rect fill="#000000" fill-opacity="null" height="41.19" id="svg_18" stroke="null" stroke-dasharray="null" stroke-linecap="null" stroke-linejoin="null" stroke-opacity="null" transform="rotate(-31.373, 726, 128.857)" width="148.93" x="651.54" y="108.26"/>
  <rect fill="#000000" fill-opacity="null" height="41.19" id="svg_17" stroke="null" stroke-dasharray="null" stroke-linecap="null" stroke-linejoin="null" stroke-opacity="null" transform="rotate(31.8275, 296.681, 126.768)" width="148.93" x="222.22" y="106.17"/>
  <rect fill="#000000" fill-opacity="null" height="64.4" id="svg_16" stroke="null" stroke-dasharray="null" stroke-linecap="null" stroke-linejoin="null" stroke-opacity="null" width="537.14" x="244.57" y="147.32"/>
  <ellipse cx="800.76" cy="1036.61" fill="#ff7f00" id="svg_15" rx="37.86" ry="65" stroke="null" stroke-dasharray="null" stroke-linecap="null" stroke-linejoin="null" stroke-opacity="null" transform="matrix(1, 0, 0, 1, 0, 0) matrix(0.791277, -0.24118, 0.102661, 1.1285, -66.7329, -94.9688)"/>
  <ellipse cx="378.52" cy="908.51" fill="#ff7f00" id="svg_14" rx="37.86" ry="65" stroke="null" stroke-dasharray="null" stroke-linecap="null" stroke-linejoin="null" stroke-opacity="null" transform="matrix(1, 0, 0, 1, 0, 0) matrix(0.851577, -0.242273, 0.108288, 1.12703, -71.7569, -56.2124)"/>
  <ellipse cx="452.96" cy="934.25" fill="#ff7f00" id="svg_13" rx="37.86" ry="65" stroke="null" stroke-dasharray="null" stroke-linecap="null" stroke-linejoin="null" stroke-opacity="null" transform="matrix(1, 0, 0, 1, 0, 0) matrix(0.767284, -0.163008, -0.0323254, 1.12647, 88.6502, -98.2865)"/>
  <ellipse cx="874.72" cy="1057.13" fill="#ff7f00" id="svg_12" rx="37.86" ry="65" stroke="null" stroke-dasharray="null" stroke-linecap="null" stroke-linejoin="null" stroke-opacity="null" transform="matrix(1, 0, 0, 1, 0, 0) matrix(0.767284, -0.163008, -0.0323255, 1.12647, 96.1539, -167.952)"/>
  <ellipse cx="306.71" cy="891" fill="#ff7f00" id="svg_10" rx="37.86" ry="65" stroke="null" stroke-dasharray="null" stroke-linecap="null" stroke-linejoin="null" stroke-opacity="null" transform="matrix(0.714972, -0.322662, 0.208299, 1.10752, -112.458, -8.26135)"/>
  <ellipse cx="651.56" cy="341" fill="#ffffff" id="svg_7" rx="111.94" ry="112.78" stroke="null" stroke-dasharray="null" stroke-linecap="null" stroke-linejoin="null" stroke-opacity="null" transform="matrix(1, 0, 0, 1, 0, 0)"/>
  <ellipse cx="371.83" cy="341" fill="#ffffff" id="svg_6" rx="111.94" ry="112.78" stroke="null" stroke-dasharray="null" stroke-linecap="null" stroke-linejoin="null" stroke-opacity="null" transform="matrix(1, 0, 0, 1, 0, 0)"/>
  <g fill="#000000" id="svg_1" transform="matrix(0.1, 0, 0, -0.1, 0, 0)">
   <path d="m2085,-348c-16,-39 -17,-258 -2,-357c33,-208 106,-368 241,-527l57,-68l-33,0c-91,0 -285,75 -370,142c-21,16 -38,27 -38,23c0,-17 77,-190 121,-274c86,-162 196,-306 278,-366c22,-16 41,-33 41,-36c0,-8 -131,-46 -185,-54c-22,-4 -52,-9 -68,-12l-27,-5l37,-25c149,-99 230,-256 206,-397c-6,-34 -47,-154 -91,-266c-138,-350 -167,-481 -166,-740c1,-209 26,-349 99,-556c26,-71 47,-133 48,-139c1,-5 -28,-69 -65,-141c-91,-178 -158,-342 -228,-552c-326,-978 -286,-1927 116,-2762c118,-244 252,-461 412,-666l79,-101l-17,-44c-36,-92 -35,-105 39,-490c39,-200 79,-415 90,-477c14,-74 30,-131 48,-163c56,-105 164,-170 293,-177c95,-5 149,9 195,53l36,34l47,-30c126,-80 310,-79 421,1l42,31l38,-34c53,-48 98,-60 195,-55c60,3 96,11 139,31l57,26l223,-114c268,-137 512,-248 587,-266c71,-17 209,-17 280,0c75,18 320,130 587,266l222,114l58,-26c69,-32 180,-42 249,-23c25,7 62,28 81,46l34,33l47,-30c126,-80 310,-79 421,1l42,31l38,-34c53,-48 98,-60 195,-55c182,10 303,120 336,308c6,36 45,240 86,453c41,214 74,410 74,435c-1,26 -9,72 -19,102l-19,54l70,89c725,920 936,2079 592,3266c-78,267 -194,562 -304,767l-49,92l35,93c85,225 117,398 117,624c0,250 -36,400 -185,772c-70,174 -72,180 -72,268c-1,77 3,98 26,148c29,61 119,164 176,199c40,25 32,32 -43,42c-65,8 -195,46 -195,57c0,5 4,9 9,9c5,0 41,32 81,72c114,114 233,307 321,521c16,38 29,71 29,73c0,2 -22,-12 -49,-31c-59,-43 -177,-98 -246,-115c-66,-16 -155,-28 -155,-21c0,3 21,26 46,51c25,25 72,85 105,134c121,183 179,408 166,647c-4,58 -9,113 -12,122c-5,12 -34,-6 -133,-86c-285,-230 -645,-445 -1044,-624c-483,-218 -1056,-356 -1668,-404c-410,-32 -1083,65 -1595,231c-554,180 -1131,492 -1546,837c-65,53 -78,60 -84,45zm367,-549c127,-82 357,-211 523,-293c549,-270 1067,-417 1770,-502c183,-22 634,-16 840,10c518,67 976,184 1368,348c263,111 617,296 836,437c40,27 75,46 78,43c10,-10 -74,-150 -124,-205c-28,-32 -121,-122 -205,-201c-84,-79 -191,-180 -237,-223l-84,-80l284,7l283,7l-23,-25c-12,-13 -112,-84 -222,-157c-109,-72 -199,-135 -199,-139c0,-4 63,-31 140,-60c77,-30 140,-55 140,-57c0,-2 -1126,-3 -2502,-2c-2421,0 -2502,1 -2458,18c25,10 89,35 143,56c53,20 97,40 97,45c0,4 -89,66 -197,139c-198,132 -243,164 -243,175c0,6 430,-1 513,-9c27,-2 47,-1 45,3c-2,4 -77,77 -168,161c-270,253 -368,353 -410,416c-38,58 -75,135 -65,135c2,0 37,-21 77,-47zm1551,-1426c184,-49 349,-141 489,-275c467,-446 465,-1185 -4,-1628c-157,-147 -344,-242 -561,-285c-572,-112 -1140,247 -1295,819c-23,88 -26,114 -26,282c-1,172 1,192 27,284c54,195 143,351 285,498c165,171 380,285 621,328c25,5 118,7 206,6c133,-3 176,-8 258,-29zm2807,-1c110,-31 250,-95 341,-156c88,-60 229,-199 290,-287c68,-99 133,-238 166,-359c26,-92 28,-112 27,-284c0,-168 -3,-194 -26,-282c-135,-497 -577,-838 -1088,-838c-618,0 -1120,501 -1120,1119c0,536 367,987 895,1101c135,30 382,22 515,-14zm-1554,-1606c108,-52 213,-207 248,-367c31,-141 17,-321 -35,-462c-11,-29 -18,-55 -17,-56c2,-2 63,-10 136,-19c838,-102 1313,-493 1446,-1191c53,-279 47,-661 -15,-952c-55,-262 -146,-518 -274,-773c-102,-205 -177,-325 -247,-396l-60,-61l-49,49c-58,57 -117,86 -202,99c-209,29 -384,-91 -418,-288c-9,-52 -6,-80 30,-263c22,-112 37,-208 35,-212c-8,-12 -154,-85 -248,-122c-181,-73 -401,-122 -506,-112c-76,7 -232,44 -345,81c-105,36 -324,140 -331,158c-3,8 11,98 30,199c41,213 44,266 15,342c-42,114 -150,198 -276,216c-133,18 -248,-17 -331,-103l-43,-44l-59,61c-138,145 -357,584 -455,916c-81,274 -115,502 -115,765c0,481 113,847 346,1116c198,229 506,394 884,473c107,22 332,56 374,56c10,0 7,17 -11,67c-74,204 -70,403 13,582c63,137 140,217 244,255c63,23 172,16 236,-14zm-2265,-4315c23,-17 52,-48 63,-70c20,-38 21,-59 28,-525c3,-267 9,-504 13,-527c7,-40 6,-43 -21,-54c-34,-13 -115,-4 -155,16c-40,21 -88,84 -95,125c-3,19 -42,221 -85,449c-43,228 -79,427 -79,443c0,62 52,135 115,165c19,8 56,12 102,10c61,-2 78,-7 114,-32zm594,16c50,-22 91,-69 105,-119c15,-54 14,-899 -2,-943c-57,-169 -316,-185 -389,-25c-17,38 -19,73 -19,498c0,298 4,466 11,485c14,37 66,92 104,109c44,19 142,17 190,-5zm620,0c49,-22 91,-69 106,-119c9,-33 1,-87 -66,-437c-42,-220 -81,-427 -86,-460c-18,-110 -83,-171 -193,-182c-40,-4 -56,-1 -74,13c-23,19 -23,20 -8,84c13,53 16,146 16,518c0,425 1,455 19,490c22,43 53,74 96,96c41,22 140,20 190,-3zm2046,-16c23,-17 52,-48 63,-70c20,-38 21,-59 28,-525c3,-267 9,-504 13,-527c7,-40 6,-43 -21,-54c-34,-13 -115,-4 -155,16c-40,21 -88,84 -95,125c-3,19 -42,221 -85,449c-43,228 -79,427 -79,443c0,62 52,135 115,165c19,8 56,12 102,10c61,-2 78,-7 114,-32zm594,16c50,-22 91,-69 105,-119c15,-54 14,-899 -2,-943c-57,-169 -316,-185 -389,-25c-17,38 -19,73 -19,498c0,298 4,466 11,485c14,37 66,92 104,109c44,19 142,17 190,-5zm620,0c49,-22 91,-69 106,-119c9,-33 1,-87 -66,-437c-42,-220 -81,-427 -86,-460c-18,-110 -83,-171 -193,-182c-40,-4 -56,-1 -74,13c-23,19 -23,20 -8,84c13,53 16,146 16,518c0,425 1,455 19,490c22,43 53,74 96,96c41,22 140,20 190,-3z" fill="#7f0000" id="svg_2" transform="matrix(1, 0, 0, 1, 0, 0)"/>
   <path d="m3647,-3100c-96,-25 -173,-88 -216,-179c-21,-46 -26,-70 -26,-136c1,-71 4,-87 34,-143c19,-35 48,-75 65,-89c130,-110 323,-104 440,13c89,89 117,237 67,350c-27,63 -101,136 -163,164c-54,24 -148,33 -201,20z" fill="#000000" id="svg_3" transform="matrix(1, 0, 0, 1, 0, 0)"/>
   <path d="m6447,-3100c-59,-15 -108,-45 -154,-92c-120,-123 -118,-320 3,-442c62,-61 134,-91 224,-91c129,1 227,60 282,173c28,57 33,77 33,142c0,128 -67,235 -180,286c-59,27 -152,38 -208,24z" fill="#000000" id="svg_4"/>
  </g>
  <path d="m350,282c3.32,0 6.77,0 9.57,0c2.77,0 4.92,0 9.22,0c2.75,0 5.25,0 8.84,0c2.11,0 4.46,-0.07 8.21,0.22c3.98,0.31 5.32,0.56 7.9,1.18c2.6,0.62 5.17,1.41 8.21,3.13c2.02,1.14 3.55,2.55 5.01,3.92c1.41,1.32 3.3,3.17 4.74,4.15c2.07,1.41 3.79,2.21 6.74,3.33c3.21,1.22 5.55,1.84 7.36,2.72c2.89,1.4 3.58,3.19 4.88,4.66c1.47,1.66 3.57,2.72 5.53,3.88c1.96,1.17 4.17,2.19 5.83,4.27c0.88,1.11 1.11,2.81 3.17,4.68c1.5,1.36 3.04,2.22 4.92,3.95c1.37,1.26 2.61,2.61 3.6,3.99c1.74,2.41 1.89,4 2.93,5.64c1.03,1.63 3.14,2.59 4.97,4.67c0.97,1.11 1.15,2.81 2.99,4.66c1.24,1.24 3.37,2.22 4.37,4.27c0.74,1.51 0.03,3.53 0.62,5.05c0.77,2.02 2.77,2.98 4.51,4.33c2.13,1.66 1.88,3.21 1.88,4.55c0,2.32 0,3.65 0,5c0,2.56 0,4.15 0,5.5c0,1.98 0,3.54 0,5.48c0,1.55 0,3.11 0,5.05c0,1.55 0,3.5 0,5.05c0,1.94 0,3.5 0,5.44c0,1.55 0,3.11 0,5.03l0,1.63" fill="none" id="svg_5" stroke="null" stroke-dasharray="null" stroke-linecap="null" stroke-linejoin="null" stroke-opacity="null"/>
  <ellipse cx="511" cy="453.5" fill="#ff7f00" fill-opacity="null" id="svg_20" rx="45" ry="63.75" stroke="null" stroke-dasharray="null" stroke-linecap="null" stroke-linejoin="null" stroke-opacity="null" transform="matrix(1, 0, 0, 1, 0, 0)"/>
 </g>
</svg>